<?xml version="1.0" encoding="utf-8"?>
<!-- Generator: Adobe Illustrator 24.3.0, SVG Export Plug-In . SVG Version: 6.00 Build 0)  -->
<svg version="1.1" id="icons" xmlns="http://www.w3.org/2000/svg" xmlns:xlink="http://www.w3.org/1999/xlink" x="0px" y="0px"
	 viewBox="0 0 512 512" style="enable-background:new 0 0 512 512;" xml:space="preserve">
<style type="text/css">
	.st0{fill:#FF2A39;}
</style>
<g>
	<g>
		<g>
			<path class="st0" d="M24,440c-4.4,0-8-3.6-8-8c0-39.7,32.3-72,72-72c4.4,0,8,3.6,8,8s-3.6,8-8,8c-30.9,0-56,25.1-56,56
				C32,436.4,28.4,440,24,440z"/>
		</g>
		<g>
			<path class="st0" d="M136,376l-48,0c-4.4,0-8-3.6-8-8c0-4.4,3.6-8,8-8l48,0c4.4,0,8,3.6,8,8C144,372.4,140.4,376,136,376z"/>
		</g>
		<g>
			<path class="st0" d="M281.2,376l-33.2,0c-4.4,0-8-3.6-8-8c0-4.4,3.6-8,8-8l33.2,0c4.4,0,8,3.6,8,8
				C289.2,372.4,285.6,376,281.2,376z"/>
		</g>
		<g>
			<path class="st0" d="M24,496c-4.4,0-8-3.6-8-8l0-56c0-4.4,3.6-8,8-8c4.4,0,8,3.6,8,8l0,56C32,492.4,28.4,496,24,496z"/>
		</g>
	</g>
	<g>
		<path class="st0" d="M136,376c-4.4,0-8-3.6-8-8v-45.8c0-4.4,3.6-8,8-8s8,3.6,8,8V368C144,372.4,140.4,376,136,376z"/>
	</g>
	<g>
		<path class="st0" d="M248,376c-4.4,0-8-3.6-8-8v-45.8c0-4.4,3.6-8,8-8s8,3.6,8,8V368C256,372.4,252.4,376,248,376z"/>
	</g>
	<g>
		<path class="st0" d="M192,344c-70.6,0-128-57.4-128-128c0-4.4,3.6-8,8-8s8,3.6,8,8c0,61.8,50.2,112,112,112s112-50.2,112-112
			c0-4.4,3.6-8,8-8s8,3.6,8,8C320,286.6,262.6,344,192,344L192,344z"/>
	</g>
	<g>
		<path class="st0" d="M72,224c-4.4,0-8-3.6-8-8v-88c0-4.4,3.6-8,8-8s8,3.6,8,8v88C80,220.4,76.4,224,72,224z"/>
	</g>
	<g>
		<path class="st0" d="M312,224c-4.4,0-8-3.6-8-8v-96c0-4.4,3.6-8,8-8s8,3.6,8,8v96C320,220.4,316.4,224,312,224z"/>
	</g>
	<g>
		<path class="st0" d="M312,128c-4.4,0-8-3.6-8-8c0-26.5-21.5-48-48-48c-4.4,0-8-3.6-8-8s3.6-8,8-8c35.3,0,64,28.7,64,64
			C320,124.4,316.4,128,312,128z"/>
	</g>
	<g>
		<path class="st0" d="M256,72c-4.4,0-8-3.6-8-8V24c0-4.4,3.6-8,8-8s8,3.6,8,8v40C264,68.4,260.4,72,256,72L256,72z"/>
	</g>
	<g>
		<path class="st0" d="M256,32h-80c-4.4,0-8-3.6-8-8s3.6-8,8-8h80c4.4,0,8,3.6,8,8S260.4,32,256,32L256,32z"/>
	</g>
	<g>
		<path class="st0" d="M72,136c-4.4,0-8-3.6-8-8c0-61.8,50.2-112,112-112c4.4,0,8,3.6,8,8s-3.6,8-8,8c-52.9,0-96,43.1-96,96
			C80,132.4,76.4,136,72,136z"/>
	</g>
	<g>
		<g>
			<path class="st0" d="M312,176c-2,0-4.1-0.8-5.7-2.3l-32-32c-3.1-3.1-3.1-8.2,0-11.3c3.1-3.1,8.2-3.1,11.3,0l32,32
				c3.1,3.1,3.1,8.2,0,11.3C316.1,175.2,314,176,312,176z"/>
		</g>
		<g>
			<path class="st0" d="M192,168c-49.6,0-90.4-24.1-92.1-25.1c-3.8-2.3-5-7.2-2.7-11c2.3-3.8,7.2-5,11-2.8
				c0.4,0.2,38.8,22.9,83.9,22.9s83.5-22.6,83.9-22.9c3.8-2.3,8.7-1,11,2.8c2.3,3.8,1,8.7-2.7,11C282.4,143.9,241.6,168,192,168
				L192,168z"/>
		</g>
		<g>
			<path class="st0" d="M72,176c-2,0-4.1-0.8-5.7-2.3c-3.1-3.1-3.1-8.2,0-11.3l32-32c3.1-3.1,8.2-3.1,11.3,0s3.1,8.2,0,11.3l-32,32
				C76.1,175.2,74,176,72,176z"/>
		</g>
	</g>
	<g>
		<path class="st0" d="M160,392c-1.5,0-3.1-0.4-4.4-1.3l-24-16c-3.7-2.4-4.7-7.4-2.2-11.1c2.4-3.7,7.4-4.7,11.1-2.2l24,16
			c3.7,2.4,4.7,7.4,2.2,11.1C165.1,390.8,162.6,392,160,392L160,392z"/>
	</g>
	<g>
		<path class="st0" d="M160,392c-3.6,0-6.8-2.4-7.8-6.1c-1.1-4.3,1.5-8.6,5.8-9.7l32-8c4.3-1.1,8.6,1.5,9.7,5.8
			c1.1,4.3-1.5,8.6-5.8,9.7l-32,8C161.3,391.9,160.6,392,160,392z"/>
	</g>
	<g>
		<path class="st0" d="M224,392c-2.6,0-5.1-1.2-6.7-3.6c-2.5-3.7-1.5-8.6,2.2-11.1l24-16c3.7-2.4,8.6-1.5,11.1,2.2
			c2.5,3.7,1.5,8.6-2.2,11.1l-24,16C227.1,391.6,225.5,392,224,392L224,392z"/>
	</g>
	<g>
		<path class="st0" d="M224,392c-0.6,0-1.3-0.1-1.9-0.2l-32-8c-4.3-1.1-6.9-5.4-5.8-9.7c1.1-4.3,5.4-6.9,9.7-5.8l32,8
			c4.3,1.1,6.9,5.4,5.8,9.7C230.8,389.6,227.6,392,224,392z"/>
	</g>
	<g>
		<path class="st0" d="M192.2,424c-4.4,0-8-3.6-8-8s3.5-8,8-8h0.1c4.4,0,8,3.6,8,8S196.6,424,192.2,424z"/>
	</g>
	<g>
		<path class="st0" d="M192.2,472c-4.4,0-8-3.6-8-8s3.5-8,8-8h0.1c4.4,0,8,3.6,8,8S196.6,472,192.2,472z"/>
	</g>
	<g>
		<g>
			<path class="st0" d="M384,496c-61.8,0-112-50.2-112-112c0-61.8,50.2-112,112-112s112,50.2,112,112C496,445.8,445.8,496,384,496z
				 M384,288c-52.9,0-96,43.1-96,96c0,52.9,43.1,96,96,96s96-43.1,96-96C480,331,437,288,384,288z"/>
		</g>
		<g>
			<path class="st0" d="M384,472c-48.5,0-88-39.5-88-88c0-48.5,39.5-88,88-88s88,39.5,88,88C472,432.5,432.5,472,384,472z M384,312
				c-39.7,0-72,32.3-72,72c0,39.7,32.3,72,72,72s72-32.3,72-72C456,344.3,423.7,312,384,312z"/>
		</g>
		<g>
			<path class="st0" d="M384,408c-13.2,0-24-10.8-24-24s10.8-24,24-24s24,10.8,24,24S397.2,408,384,408z M384,376c-4.4,0-8,3.6-8,8
				s3.6,8,8,8s8-3.6,8-8S388.4,376,384,376z"/>
		</g>
		<g>
			<path class="st0" d="M453.3,352H314.7c-4.4,0-8-3.6-8-8s3.6-8,8-8h138.6c4.4,0,8,3.6,8,8S457.7,352,453.3,352z"/>
		</g>
		<g>
			<path class="st0" d="M400,470.3c0,0-0.1,0-0.2,0c-4.4-0.1-7.9-3.7-7.8-8.2c0.8-42.5,28.8-78.9,69.7-90.5c4.3-1.2,8.7,1.3,9.9,5.5
				s-1.3,8.7-5.5,9.9c-34,9.7-57.4,40-58,75.4C407.9,466.8,404.4,470.3,400,470.3L400,470.3z"/>
		</g>
		<g>
			<path class="st0" d="M368,470.4c-4.4,0-7.9-3.5-8-7.9c-0.6-35.5-24-65.8-58-75.5c-4.3-1.2-6.7-5.6-5.5-9.9
				c1.2-4.3,5.6-6.7,9.9-5.5c40.9,11.6,68.9,48,69.7,90.6c0.1,4.4-3.4,8.1-7.9,8.1C368.1,470.4,368.1,470.4,368,470.4L368,470.4z"/>
		</g>
	</g>
</g>
</svg>
