<?xml version="1.0" encoding="utf-8"?>
<!-- Generator: Adobe Illustrator 24.3.0, SVG Export Plug-In . SVG Version: 6.00 Build 0)  -->
<svg version="1.1" id="Capa_1" xmlns="http://www.w3.org/2000/svg" xmlns:xlink="http://www.w3.org/1999/xlink" x="0px" y="0px"
	 viewBox="0 0 299.5 86.5" style="enable-background:new 0 0 299.5 86.5;" xml:space="preserve">
<style type="text/css">
	.st0{fill:#E73540;}
</style>
<path class="st0" d="M125.5,44.3c-1.2,7.2-6.1,10.4-11.9,10.4h-6.3l3.3-20.7l6,0C122.3,34,126.6,37.2,125.5,44.3z"/>
<path class="st0" d="M158.9,55.1c0.8-2,1-4.3,0.3-6.6L147.1,9.4c-1.6-5-6.9-7.8-11.9-6.3L67,24.2c-2.9,0.9-5,3-6,5.6
	c-0.6,1.6-0.8,3.3-0.5,5c0.1,0.4,0.2,0.8,0.3,1.2l2.1,6.8c2.1-9.4,10.4-16.7,20.5-16.7c6.5,0,12.1,3.8,14.2,9.4l-7.2,3.4
	c-1.3-3.2-4.3-5.3-8.2-5.3c-5.9,0-11.2,4.8-12.1,10.6c-1,5.8,2.8,10.6,8.7,10.6c4,0,7.8-2.2,10-5.5l6.2,3.4
	c-3.9,5.7-9.3,9.5-17.3,9.5c-3.8,0-7.2-1.3-9.9-3.5l5.1,16.3c1.6,5,6.9,7.8,11.9,6.3l63.4-19.7H135l5.5-35.1h7.4l-4.5,28.3H158.9z
	 M132.9,44.3c-1.8,11.3-10,17.6-19.8,17.6H98.7l5.6-35.1l13.7,0C126.5,26.8,134.6,33,132.9,44.3z"/>
<g>
	<path d="M30.2,29.8L19.5,45l-5.9-15.1H7.2L3.1,56.3h5.6l2.7-16.9L16.2,52H21l8.9-12.7l-2.7,17h5.6L37,29.8H30.2z"/>
	<path d="M57.2,29.8L50,40.1l-4.3-10.3h-6.1L46.5,46l-1.6,10.2h5.6L52.2,46l8.2-11.1l3.7-5H57.2z"/>
</g>
<g>
	<path d="M176.7,29.7l-10.4,0l-4.2,26.6H173c7.5,0,13.6-4.8,15-13.3C189.3,34.4,183.1,29.7,176.7,29.7z M182.4,43
		c-0.9,5.4-4.6,7.9-9,7.9h-4.8l2.5-15.7l4.5,0C180,35.1,183.2,37.5,182.4,43z"/>
	<path d="M212.9,38.4c0.9-5.6-3.2-8.7-7.8-8.7h-11.3l-4.2,26.6h5.6l1.5-9.3h4.6l3.2,9.3h6.1l-3.8-10.1
		C210,44.9,212.3,42.2,212.9,38.4z M207.2,38.4c-0.4,2.2-2.2,3.8-4.5,3.8h-5.3l1.2-7.6h5.3C206.3,34.6,207.6,36.2,207.2,38.4z"/>
	<path d="M218,29.7l-4.2,26.6h5.6l4.2-26.6H218z"/>
	<path d="M246,29.7l-10,19.9l-3.9-19.9h-5.8l5.5,26.6h6.7l13.9-26.6H246z"/>
	<path d="M273.6,34.7l0.8-5h-18.8l-4.2,26.6h18.8l0.8-5h-13.2l1-6h12.9l0.7-4.8h-12.9l0.9-5.9H273.6z"/>
	<path d="M297.4,38.4c0.9-5.6-3.2-8.7-7.8-8.7h-11.3l-4.2,26.6h5.6l1.5-9.3h4.6l3.2,9.3h6l-3.8-10.1
		C294.6,44.9,296.8,42.2,297.4,38.4z M291.8,38.4c-0.3,2.2-2.2,3.8-4.5,3.8h-5.3l1.2-7.6h5.3C290.9,34.6,292.2,36.2,291.8,38.4z"/>
</g>
</svg>
