<?xml version="1.0" encoding="utf-8"?>
<!-- Generator: Adobe Illustrator 25.2.1, SVG Export Plug-In . SVG Version: 6.00 Build 0)  -->
<svg version="1.1" id="Capa_1" xmlns="http://www.w3.org/2000/svg" xmlns:xlink="http://www.w3.org/1999/xlink" x="0px" y="0px"
	 viewBox="0 0 512 512" style="enable-background:new 0 0 512 512;" xml:space="preserve">
<style type="text/css">
	.st0{fill:#FF2A39;}
</style>
<g>
	<path class="st0" d="M232.1,141.3c1.4,1.2,3.1,1.8,4.8,1.8c0.2,0,0.4,0,0.6,0c2-0.2,3.8-1.1,5.1-2.7l47.9-57.1
		c2.7-3.2,2.2-7.9-0.9-10.6c-3.2-2.7-7.9-2.2-10.6,0.9L236,125l-19.7-16.7c-3.2-2.7-7.9-2.3-10.6,0.9c-2.7,3.2-2.3,7.9,0.9,10.6
		L232.1,141.3z"/>
	<path class="st0" d="M251.1,209.8c25.6,0,51.2-9.7,70.7-29.2c18.9-18.9,29.3-43.9,29.3-70.6c0-26.7-10.4-51.8-29.3-70.7
		c-20.5-20.5-48.7-31-77.5-29c-28.9,2-55.5,16.4-72.9,39.5c-2.5,3.3-1.8,8,1.5,10.5c3.3,2.5,8,1.8,10.5-1.5
		c14.8-19.6,37.4-31.9,62-33.6c24.5-1.7,48.5,7.3,65.9,24.7c16,16,24.9,37.4,24.9,60c0,22.7-8.8,44-24.9,60
		c-33.1,33.1-87,33.1-120.2,0c-21.7-21.7-30-53.6-21.7-83.2c1.1-4-1.2-8.1-5.2-9.3c-4-1.1-8.1,1.2-9.3,5.2
		c-9.8,34.8-0.1,72.3,25.5,97.8C199.9,200,225.5,209.8,251.1,209.8L251.1,209.8z"/>
	<path class="st0" d="M481.5,381.9c-2.5-1.4-5.1-2.9-7.7-4.5l-19.6-11.8c9.1-9.7,16-21.5,18.6-33.2c0.8-3.6,1.2-7.1,1.2-10.4v-49.6
		c0-22.6-17-43-43.3-51.9c-23-7.8-45.8-4.2-58.1,8.9c-12.6,2.2-30.3,12.2-29.7,50.9c0,0.3,0,0.6,0,0.8v40.9c0,3.3,0.4,6.8,1.2,10.4
		c2.7,11.8,9.5,23.6,18.6,33.3l-19.3,11.6c-0.1,0.1-0.3,0.2-0.4,0.2c-2.6,1.6-5.1,3-7.6,4.4c-7.4,4.2-14.5,8.3-20.1,14l-13.8-8.3
		c9.1-9.7,16-21.5,18.6-33.2c0.8-3.5,1.2-7,1.2-10.4v-22.1c0,0,0,0,0,0v-27.6c0-22.6-17-42.9-43.3-51.9c-23-7.8-45.8-4.2-58.1,8.9
		c-12.6,2.2-30.3,12.2-29.7,50.9c0,0.3,0,0.6,0,0.9v9.5v13.5V344c0,3.2,0.4,6.7,1.2,10.4c2.7,11.8,9.5,23.5,18.7,33.2l-13.8,8.3
		c-5.6-5.7-12.7-9.8-20.1-14c-2.5-1.4-5.1-2.9-7.7-4.5l-0.2-0.1c0,0,0,0-0.1,0l-19.4-11.6c9.1-9.7,16-21.5,18.6-33.3
		c0.8-3.5,1.2-7,1.2-10.4V300v-8.4v-19.1c0-22.6-17-42.9-43.3-51.9c-23-7.8-45.8-4.2-58.1,8.9c-12.6,2.2-30.3,12.2-29.6,50.9
		c0,0.4,0,0.6,0,0.9v9.5v13.5v17.9c0,3.4,0.4,6.9,1.2,10.4c2.7,11.8,9.5,23.6,18.7,33.3l-19.6,11.8c-2.6,1.6-5.2,3-7.7,4.4
		C14.8,390.8,0,399.2,0,423.8v44.1c0,1.5,0,6,3.3,9.3c2.7,2.7,6.1,3,8.7,3c0.4,0,0.7,0,1.1,0c0.4,0,0.7,0,1.1,0h74c0,0,0,0,0,0
		s0,0,0,0h15.3h0h15.3c0,0,0,0,0,0s0,0,0,0h33.8v9.6c0,1.5,0,6.1,3.3,9.3c2.8,2.7,6.1,3,8.6,3c0.4,0,0.7,0,1.1,0c0.4,0,0.7,0,1.1,0
		h8.6c4.1,0,7.5-3.4,7.5-7.5s-3.4-7.5-7.5-7.5h-7.8v-6.9v-15v-19.4c0-15.2,6.6-19.5,22.9-28.8c0.2-0.1,0.5-0.3,0.8-0.4
		c1-0.6,2.1-1.2,3.2-1.8l12.5,8.1l12.9,8.4c0.1,0.1,0.2,0.1,0.3,0.2c0.9,0.5,1.7,1.1,2.5,1.6c1.6,1.1,4.6,3.1,8.2,3.1
		c1.5,0,3.1-0.4,4.8-1.3l1,4L222,470.4c0,0,0,0,0,0.1c-1.2,2.6-1.1,5.4,0.5,7.8l5.1,8.7h-17.6c-4.1,0-7.5,3.4-7.5,7.5
		s3.4,7.5,7.5,7.5h30.7h0h104.6c0.4,0,0.8,0,1.1,0c0.3,0,0.7,0,1.1,0c2.6,0,5.9-0.3,8.7-3c3.3-3.2,3.3-7.8,3.3-9.3v-9.6h64.3h0h74.1
		c0.4,0,0.8,0,1.1,0c0.3,0,0.7,0,1.1,0c2.5,0,5.9-0.3,8.6-3c3.3-3.2,3.3-7.8,3.3-9.3v-44.1C512,399.3,497.2,390.8,481.5,381.9
		L481.5,381.9z M150.7,384.2l-19.1,12.3c-0.8,0.5-1.5,0.9-2.1,1.3l-4.1-4.3c-0.1-0.1-0.1-0.2-0.2-0.2l-6.8-7.2
		c0.7-0.2,1.5-0.5,2.2-0.8c5.8-2.2,11.4-5.3,16.7-9.1L150.7,384.2z M72.1,244c2.1-0.2,4-1.2,5.3-2.9c7.6-9.9,25.5-12.5,43.5-6.4
		c15.3,5.2,33.1,18.2,33.1,37.7v19.1v0.9h-3.2c-7.4,0-12.2-4.1-19.3-10.8c-8.1-7.6-18.1-17-35.6-17H82.4c-16.3,0-19,13.3-20.7,21.2
		c-1.9,9.1-2.8,10.9-8.7,10.9h-0.1v-6v-9.5c0-0.3,0-0.6,0-1.1C52.6,257.3,59,245.1,72.1,244L72.1,244z M53.8,329.1
		c-0.5-2.4-0.8-4.7-0.8-7v-10.4h0.1c18.7,0,21.8-14.9,23.4-22.9c1.9-9.2,2.7-9.2,6-9.2h13.4c11.5,0,17.9,6,25.3,12.9
		c7.5,7,15.9,14.9,29.6,14.9h3.2v14.6c0,2.3-0.3,4.6-0.8,7c-4,17.4-20.2,35.5-37.8,42c-4.5,1.7-8.3,2.5-11.9,2.5s-7.4-0.8-11.9-2.5
		C74,364.6,57.7,346.5,53.8,329.1L53.8,329.1z M111.5,400.6l-2.4,9.5H97.8l-2.4-9.5l8.1-8.5L111.5,400.6z M69.6,376.1
		c5.3,3.8,10.9,6.9,16.7,9.1c0.8,0.3,1.5,0.5,2.3,0.8l-11.1,11.8c-0.6-0.4-1.3-0.9-2.1-1.3l-19.1-12.3L69.6,376.1z M69.8,456.2
		l5.2,8.8H15v-41.3c0-15.2,6.6-19.6,22.9-28.8c1.3-0.7,2.6-1.5,3.9-2.2l25.4,16.4c0.1,0.1,0.2,0.1,0.3,0.2c0.9,0.5,1.7,1.1,2.5,1.6
		c1.7,1.2,4.7,3.2,8.2,3.2c1.5,0,3.1-0.4,4.8-1.3l1,4l-14.6,31.7C68.2,451,68.3,453.9,69.8,456.2L69.8,456.2z M114.4,465.1h-11
		c0,0,0,0,0,0h-11l-7.9-13.4l12.3-26.6h13.3l12.3,26.6L114.4,465.1z M152.5,445.6v19.4h-20.7l5.2-8.8c1.5-2.4,1.6-5.2,0.4-7.7
		l-14.6-31.7l1-4c1.7,0.9,3.3,1.3,4.8,1.3c3.6,0,6.6-2,8.3-3.2c0.8-0.5,1.5-1.1,2.4-1.6c0.1-0.1,0.2-0.1,0.3-0.2l25.4-16.4
		c1.3,0.8,2.6,1.5,3.9,2.3c5.9,3.4,10.5,6,14,8.9C167.3,412.7,152.5,421.2,152.5,445.6z M455.8,384.2l-19,12.3
		c-0.8,0.5-1.5,0.9-2.1,1.4l-4.1-4.4c-0.1-0.1-0.2-0.2-0.3-0.3l-6.8-7.2c0.7-0.2,1.5-0.5,2.2-0.8c5.8-2.2,11.4-5.3,16.7-9.1
		L455.8,384.2z M377.1,244c2.1-0.2,4-1.2,5.3-2.9c7.6-9.9,25.5-12.5,43.5-6.4c15.3,5.2,33.1,18.2,33.1,37.7v20h-3.2
		c-7.4,0-12.2-4.1-19.3-10.8c-8.1-7.6-18.1-17-35.6-17h-13.4c-16.3,0-19,13.3-20.7,21.2c-1.9,9.1-2.8,10.9-8.7,10.9H358v-15.5
		c0-0.3,0-0.6,0-1.1C357.6,257.3,364.1,245.1,377.1,244L377.1,244z M358.9,329.1c-0.6-2.5-0.9-4.8-0.9-7v-10.4h0.2
		c18.7,0,21.8-14.9,23.4-22.9c1.9-9.2,2.7-9.2,6-9.2H401c11.5,0,18,6,25.4,12.9c7.5,7,15.9,14.9,29.6,14.9h3.2v14.6
		c0,2.2-0.3,4.6-0.9,7c-4,17.4-20.2,35.5-37.8,42c-4.5,1.7-8.2,2.5-11.9,2.5c-3.6,0-7.4-0.8-11.9-2.5
		C379,364.6,362.8,346.5,358.9,329.1L358.9,329.1z M416.6,400.6l-2.4,9.5h-11.3l-2.4-9.5l8.1-8.5L416.6,400.6z M374.7,376.1
		c5.2,3.8,10.9,6.9,16.7,9.1c0.8,0.3,1.5,0.5,2.2,0.8l-11.1,11.8c-0.6-0.4-1.3-0.9-2.1-1.3l-19-12.3L374.7,376.1z M303.2,406
		l-19,12.3c-0.8,0.5-1.5,0.9-2.1,1.3l-11.2-11.8c0.7-0.2,1.5-0.5,2.2-0.8c5.8-2.2,11.4-5.3,16.7-9.1L303.2,406z M224.6,265.9
		c2.1-0.2,4-1.2,5.3-2.9c7.6-9.9,25.5-12.5,43.5-6.3c15.3,5.2,33.1,18.2,33.1,37.7v19.1c0,0,0,0,0,0v0.9h-3.2
		c-7.4,0-12.2-4.1-19.3-10.8c-8.1-7.6-18.1-17-35.6-17H235c-16.3,0-19,13.3-20.7,21.2c-1.9,9.1-2.8,10.9-8.7,10.9h-0.2v-6v-9.5
		c0-0.3,0-0.6,0-1.1C205.1,279.2,211.5,267,224.6,265.9L224.6,265.9z M206.3,351.1c-0.6-2.6-0.9-5-0.9-7.1v-10.3h0.2
		c18.7,0,21.8-14.9,23.4-22.9c1.9-9.2,2.7-9.2,6-9.2h13.4c11.5,0,17.9,6,25.4,12.9c7.4,7,15.9,14.9,29.6,14.9h3.2V344
		c0,2.3-0.3,4.6-0.8,7c-4,17.4-20.2,35.5-37.8,42c-4.6,1.7-8.4,2.5-11.9,2.5c-3.6,0-7.4-0.8-11.9-2.5
		C226.5,386.5,210.3,368.4,206.3,351.1L206.3,351.1z M264,422.5l-2.4,9.5h-11.3l-2.4-9.5l8.1-8.5L264,422.5z M229.9,419.7
		c-0.6-0.4-1.3-0.9-2.1-1.3l-19-12.3l13.4-8c5.3,3.8,10.9,6.9,16.7,9.1c0.8,0.3,1.5,0.5,2.2,0.8L229.9,419.7z M267,487h-22
		l-7.9-13.4l12.2-26.6h13.3l12.2,26.6L267,487z M344.5,487h-60.1l5.2-8.8c1.5-2.3,1.6-5.2,0.4-7.7c0,0,0,0,0-0.1l-14.6-31.7l1-4
		c1.7,0.9,3.3,1.3,4.8,1.3c3.6,0,6.5-2,8.2-3.2c0.8-0.5,1.6-1.1,2.5-1.6c0.1-0.1,0.2-0.1,0.3-0.2l25.4-16.5c1.1,0.6,2.1,1.2,3.1,1.8
		c0.3,0.1,0.5,0.3,0.8,0.5c16.3,9.2,22.9,13.6,22.9,28.8L344.5,487z M375,456.4l5.1,8.7h-20.6v-19.4c0-24.5-14.8-32.9-30.5-41.8
		c0,0,0,0,0,0c3.5-2.8,8.1-5.5,14-8.9c1.3-0.7,2.6-1.5,4-2.3l25.4,16.4c0.1,0.1,0.2,0.1,0.3,0.2c0.9,0.5,1.7,1.1,2.5,1.6
		c1.6,1.1,4.6,3.1,8.3,3.1c1.5,0,3.1-0.4,4.7-1.2l1,4l-14.6,31.7c0,0,0,0,0,0C373.2,451.1,373.4,454,375,456.4L375,456.4z
		 M419.5,465.1h-22l-7.9-13.4l12.2-26.5h13.3l12.2,26.5L419.5,465.1z M497,465.1h-60.1l5.2-8.8c1.4-2.2,1.6-4.8,0.6-7.2
		c-0.1-0.1-0.1-0.3-0.2-0.5l-14.6-31.7l1-4c1.7,0.9,3.3,1.3,4.8,1.3c3.6,0,6.6-2,8.3-3.2c0.8-0.5,1.5-1.1,2.5-1.6
		c0.1-0.1,0.2-0.1,0.3-0.2l25.4-16.4c1.3,0.8,2.7,1.5,4,2.3c16.3,9.2,22.9,13.6,22.9,28.8L497,465.1z"/>
</g>
</svg>
