<?xml version="1.0" encoding="utf-8"?>
<!-- Generator: Adobe Illustrator 24.3.0, SVG Export Plug-In . SVG Version: 6.00 Build 0)  -->
<svg version="1.1" id="Capa_1" xmlns="http://www.w3.org/2000/svg" xmlns:xlink="http://www.w3.org/1999/xlink" x="0px" y="0px"
	 viewBox="0 0 512 512" style="enable-background:new 0 0 512 512;" xml:space="preserve">
<style type="text/css">
	.st0{fill:#FF2A39;}
</style>
<g>
	<path class="st0" d="M456,360V260c0-10.8-6.2-20.7-16-25.3V36c0-15.5-12.5-28-28-28H100C84.5,8,72,20.5,72,36v198.7
		c-9.8,4.6-16,14.5-16,25.3v100c-8.8,0-16,7.2-16,16v32c0,8.8,7.2,16,16,16v56c0,13.2,10.8,24,24,24h32c13.2,0,24-10.8,24-24v-56
		h240v56c0,13.2,10.8,24,24,24h32c13.2,0,24-10.8,24-24v-56c8.8,0,16-7.2,16-16v-32C472,367.2,464.8,360,456,360z M88,36
		c0-6.6,5.4-12,12-12h312c6.6,0,12,5.4,12,12v196h-24V116c0-15.5-12.5-28-28-28H140c-15.5,0-28,12.5-28,28v116H88V36z M360,120H152
		c-4.4,0-8,3.6-8,8v104h-16V116c0-6.6,5.4-12,12-12h232c6.6,0,12,5.4,12,12v116h-16V128C368,123.6,364.4,120,360,120z M333.7,198.3
		c-3.1-3.1-8.2-3.1-11.3,0L288.7,232h-85.4l22.4-22.3c3.1-3.1,3.1-8.2,0-11.3s-8.2-3.1-11.3,0L180.7,232H160v-96h192v96h-40.7
		l22.4-22.3C336.8,206.5,336.8,201.5,333.7,198.3z M72,260c0-6.6,5.4-12,12-12h344c6.6,0,12,5.4,12,12v100H72V260z M120,480
		c0,4.4-3.6,8-8,8H80c-4.4,0-8-3.6-8-8v-56h48V480z M440,480c0,4.4-3.6,8-8,8h-32c-4.4,0-8-3.6-8-8v-56h48V480z M456,408H56v-8h48
		c4.4,0,8-3.6,8-8s-3.6-8-8-8H56v-8h400v8h-48c-4.4,0-8,3.6-8,8s3.6,8,8,8h48V408z"/>
	<path class="st0" d="M120,280c-17.7,0-32,14.3-32,32s14.3,32,32,32s32-14.3,32-32C152,294.3,137.7,280,120,280z M120,328
		c-8.8,0-16-7.2-16-16s7.2-16,16-16s16,7.2,16,16C136,320.8,128.8,328,120,328z"/>
	<path class="st0" d="M392,280c-17.7,0-32,14.3-32,32s14.3,32,32,32s32-14.3,32-32C424,294.3,409.7,280,392,280z M392,328
		c-8.8,0-16-7.2-16-16s7.2-16,16-16s16,7.2,16,16C408,320.8,400.8,328,392,328z"/>
	<path class="st0" d="M240,144h-64c-4.4,0-8,3.6-8,8s3.6,8,8,8h64c4.4,0,8-3.6,8-8S244.4,144,240,144z"/>
	<path class="st0" d="M272,144h-8c-4.4,0-8,3.6-8,8s3.6,8,8,8h8c4.4,0,8-3.6,8-8S276.4,144,272,144z"/>
	<path class="st0" d="M320,280H192c-4.4,0-8,3.6-8,8v48c0,4.4,3.6,8,8,8h128c4.4,0,8-3.6,8-8v-48C328,283.6,324.4,280,320,280z
		 M312,328H200v-32h112V328z"/>
</g>
</svg>
